<?xml version="1.0" encoding="utf-8"?>
<!-- Generator: Adobe Illustrator 25.4.0, SVG Export Plug-In . SVG Version: 6.00 Build 0)  -->
<svg version="1.1" id="Layer_1" xmlns="http://www.w3.org/2000/svg" xmlns:xlink="http://www.w3.org/1999/xlink" x="0px" y="0px"
	 viewBox="0 0 128 160" style="enable-background:new 0 0 128 160;" xml:space="preserve">
<style type="text/css">
	.st0{fill:#FFFFFF;}
</style>
<g>
	<path class="st0" d="M53.2,62.3c-1.4,1.1-2.9,2-4.2,2.8c-0.1,0-0.1,0.2-0.1,0.2c0,0,0.1,0,0,0.1c0.1,0,0,0.1,0.1,0.2
		c0.1,0.2,0.2,0.5,0.4,0.7c0.7,1.1,1.6,2.2,2.4,3.2c0.1,0,0.2,0.1,0.3,0c0.2-0.1,0.4-0.3,0.7-0.4l2.2-1.1c0.4-0.2,0.9-0.4,1.3-0.7
		l2.6-1.3c0.7-0.4,1.3-0.7,1.9-1.1c0.3-0.2,0.7-0.4,1-0.7l3.3-2c0.3-0.2,0.6-0.4,1-0.6c0.2-0.1,0.4-0.3,0.6-0.4
		c0.1,0,0.3-0.2,0.3-0.2l0.2-0.1c0.4-0.4,0.8-0.8,1.2-1.1c0.2-0.2,0.4-0.5,0.7-0.6c0.2-0.3,0.6-0.5,0.7-0.7l0-0.1
		c0-0.1,0.2-0.2,0.3-0.2l0.2-0.1c0.1,0,0.2-0.1,0.2-0.2c0.1,0,0.2-0.1,0.2-0.1l0.1,0c0.1,0,0.3-0.2,0.4-0.1c0.1,0,0.2,0,0.3,0
		c0.1,0,0.3,0,0.4,0c0.1,0,0.2,0,0.3,0l0.1,0c0.3,0,0.6,0.2,0.8,0.3c0.5,0.2,0.9,0.4,1.2,0.6c0.6,0.3,0.8,0.5,0.8,0.5
		c0.2,0.1,0.4,0.3,0.4,0.5c0,0.1,0,0.1,0.1,0.2c0.1,0,0.1,0,0.2,0c0.3-0.2,0.6-0.4,0.9-0.5c0.1,0,0.2-0.2,0-0.3l-0.1,0l0,0
		c-2.4-1.2-4.7-2.2-6.7-3.1l-0.2-0.1c-0.1,0-0.2-0.1-0.4-0.1c-0.2-0.1-0.6-0.2-0.9-0.4c-0.5-0.2-1.1-0.5-1.8-0.6
		C66,54.4,65,54.3,64,54.3l-0.1,0c-1.4,1.1-2.7,2.2-4,3.2C57.4,59.2,55.2,60.9,53.2,62.3z"/>
	<path class="st0" d="M58.2,49.6C58.2,49.7,58.3,49.7,58.2,49.6c0.2,0.1,0.2,0.1,0.3,0l0.5-0.2c0.4-0.2,0.7-0.3,1.1-0.5
		c0.2-0.1,0.4-0.2,0.5-0.2l0,0c1.1-0.6,2-1.6,2.6-2.7c0.1-0.2,0.2-0.4,0.4-0.6c0.2-0.4,0.5-0.7,0.8-1.2c0.1-0.2,0.2-0.3,0.4-0.5
		l0.7-0.9c0.2-0.3,0.5-0.6,0.9-1c0.4-0.5,0.9-0.9,1.3-1.4c0.2-0.2,0.4-0.5,0.6-0.7c0-0.1,0.2-0.1,0.4-0.3c1.3-1.2,2.5-2.4,2.4-3.1
		c0-0.2,0-0.3-0.2-0.4c-0.1,0-0.2-0.1-0.3,0c-0.9,0.6-1.8,1.4-2.4,2.2c-0.7,0.9-1.5,1.7-2.2,2.5c-0.4,0.3-0.7,0.7-1,1.1
		c-0.6,0.6-1.1,1.2-1.7,1.8l-1.3,1.4c-1.3,1.3-2.4,2.8-3.5,4.3C58.1,49.4,58.1,49.6,58.2,49.6z"/>
	<path class="st0" d="M49.5,50.6L49.5,50.6l-0.3,0.2c-0.3,0.2-0.5,0.4-0.8,0.7c-0.8,0.7-2,1.6-3.3,2.7l-0.8,0.6
		c-1.2,1-2.5,2-4.2,3.2c-0.1,0-0.1,0.2,0,0.3l0.1,0c0.5,0.2,0.9,0.6,1.4,0.9c0.6,0.5,1.2,1.2,1.6,1.9c0.4,0.5,0.7,0.9,1,1.6
		c0.4,0.9,0.6,1.8,0.6,2.7c0,0.4,0,0.7-0.1,1c0,0.1,0,0.2,0.1,0.2l0,0c0.1,0,0.2,0.1,0.2,0l0.4-0.3c1.9-1.2,4.3-2.9,7.3-5.1
		c1.5-1.1,3-2.2,4.4-3.4l0.6-0.5c0.6-0.5,1.3-0.9,2-1.4c1.1-0.6,2.2-1.4,3.1-2.4c0.8-0.8,1.2-1.8,1.3-2.9c0.1-0.7-0.2-1.5-0.7-1.9
		c-0.1-0.2-0.2-0.3-0.4-0.5c0-0.1-0.2-0.1-0.3,0c-0.5,0.3-1,0.7-1.6,1.1c-1.5,1-3,2-4.6,1.8c0-0.7,0.2-1.3,0.6-1.8
		c0-0.1,0.1-0.2,0.2-0.4c0.3-0.5,0.6-1.2,0.9-1.7c0.1,0,0.2-0.1,0.2-0.2c0-0.1-0.1-0.2-0.2-0.2c-0.8,0.1-1.6,0.3-2.4,0.5
		c-1.2,0.4-2.3,0.9-3.4,1.4c-0.9,0.5-1.8,1-2.5,1.4L49.5,50.6z"/>
	<path class="st0" d="M38.5,67.8c0.3,0.4,0.6,0.7,1.1,0.9c0.2,0.1,0.4,0.1,0.5,0c2.9,0.8,4.9-3.1,3.8-5.6c-0.1-0.2-0.2-0.3-0.4-0.4
		c0-0.1-0.1-0.2-0.1-0.4c-0.7-0.8-1.4-1.6-2.2-2.3c0,0,0,0-0.1,0L41,60l-0.1,0c-0.5-0.4-1.1-0.7-1.7-0.9c-0.7-0.3-1.6-0.2-2.3,0
		c-0.8,0.3-1.4,0.9-1.9,1.6L34.9,61l0,0c0,0.1-0.1,0.2-0.1,0.2c-0.4,0.8-0.3,1.7,0.2,2.5c0.1,0,0.1,0,0.2,0.1s0.1,0,0.2-0.1l0-0.1
		c0.4-0.7,0.9-1.3,1.4-1.8c-0.2,0.8-0.4,1.5-0.7,2.2c-0.2,0.3-0.3,0.7-0.5,1.1c-0.5,1.1-1,2.4-1.3,3.6c0,0.1,0,0.2,0.1,0.2l0.1,0
		c0.1,0,0.1,0,0.2,0c0.8-0.2,1.7-0.4,2.5-0.7C37.5,68.1,38,67.9,38.5,67.8z M39,61.6c-0.1,0-0.1,0-0.2-0.1c0.2-0.1,0.5-0.2,0.7-0.1
		c1.1,0.4,2,1,2.9,1.8c0,0.1,0,0.2,0,0.3c0.6,1.5-0.5,4.9-2.6,3.8c-0.1,0-0.1,0-0.2-0.1l-0.1,0c0.6-0.3,1.2-0.6,1.7-1
		c0-0.1,0.2-0.1,0.2-0.2l0-0.1l0,0l0.1,0c0.1-0.2,0.2-0.3,0.2-0.5l0-0.1c0.1-0.2,0.1-0.4,0.1-0.6c0-0.5-0.2-1.1-0.5-1.5
		c-0.5-0.7-1.3-1.2-2.1-1.5C39.4,61.7,39.2,61.6,39,61.6L39,61.6z M41.6,65.8L41.6,65.8L41.6,65.8l0.1,0.2L41.6,65.8z"/>
	<path class="st0" d="M40.6,51.1l0.1,0.2l0,0.1l0.3,0.4c0.2,0.3,0.4,0.6,0.6,0.8l-1.1,0.6c-0.1,0-0.3,0.2-0.4,0.2l0,0.1
		c-0.2,0.1-0.3,0.2-0.4,0.3c-0.3,0.2-0.5,0.4-0.8,0.7c-0.6,0.5-1,1.2-1.4,1.8c-0.3,0.4-0.6,0.9-0.7,1.3c0,0.1,0,0.2,0,0.2
		c0.1,0,0.2,0.1,0.2,0.1c0.3,0,0.6-0.1,0.9-0.1l0.1,0c1.8-1.2,3.3-2.3,4.6-3.3c0.5-0.4,0.8-0.7,1.3-0.9c0.6-0.5,1.2-0.9,1.7-1.3
		c0.4-0.4,1-0.8,1.7-1.4c0.5-0.4,1.1-0.8,1.7-1.3c0-0.1,0.1-0.2,0.1-0.2c0-0.1,0-0.1-0.1-0.2c-0.9-0.6-1.6-1-2.4-1.4
		c-0.8-0.5-1.5-0.9-2-1.2c-1.2-0.8-1.1-1.1-1.1-1.1s0.2-0.2,1.5,0.3c1.9,0.7,3.7,1.6,5.4,2.6c0.1,0,0.2,0.1,0.2,0
		c0.5-0.2,1.1-0.5,1.1-0.5c0.1,0,0.2-0.1,0.2-0.3c0,0-0.1,0,0-0.1c-0.5-0.6-1.1-0.9-1.8-1.1c-0.2-0.1-0.5-0.2-0.7-0.4
		c-0.6-0.3-1.3-0.6-1.9-0.7c-0.4-0.1-0.8-0.3-1.3-0.4l-0.2-0.1c-1.5-0.6-3.1-1.1-4.6-1.5c-0.4-0.1-1-0.2-1.4-0.3
		c-0.5,0-0.9-0.1-1.4,0c-0.2,0-0.4,0.1-0.5,0.2c-0.1,0-0.2,0.2-0.2,0.3l0,0.1c0,0.5,0.1,1,0.3,1.4c0.1,0.2,0.2,0.6,0.4,0.9
		c0.1,0.2,0.1,0.4,0.2,0.6l0.3,0.8c0.2,0.5,0.3,0.9,0.5,1.3c0.1,0.2,0.1,0.4,0.2,0.5c0,0.1,0.1,0.2,0.2,0.4c0.1,0.2,0.2,0.4,0.3,0.6
		L40.6,51.1L40.6,51.1z"/>
	<path class="st0" d="M56.8,73.1c0.3-0.2,0.6-0.4,0.7-0.7c0.1-0.2,0.2-0.3,0.4-0.4c0.5-0.4,1-0.9,1.7-1.3c0.9-0.6,1.8-1.3,2.6-1.9
		c1.5-1,2.9-2.1,4.2-3l6.1-4c0.4-0.3,0.9-0.5,1.3-0.8c0-0.1,0.1-0.2,0.1-0.2c0-0.1,0-0.1-0.1-0.2c-0.2-0.1-0.4-0.3-0.7-0.6
		c-0.3-0.2-0.7-0.4-1-0.6c-0.1,0-0.2-0.1-0.3-0.2c0,0,0,0-0.1,0l-0.1,0c-0.2-0.1-0.2,0-0.5,0.2c-0.6,0.4-1.1,0.8-1.6,1.3
		c-0.3,0.2-0.6,0.5-0.9,0.8l-0.2,0.1c-0.2,0.1-0.2,0.2-0.4,0.3c-0.2,0.1-0.4,0.3-0.6,0.4c-1.8,1-3.4,2-5,2.9L62,65.7
		c-0.7,0.4-1.3,0.8-1.8,1.1c-0.4,0.3-0.9,0.5-1.3,0.7c-0.4,0.2-0.7,0.4-1.1,0.6c-0.8,0.4-1.5,0.9-2.2,1.3l-1,0.6
		c-0.1,0-0.2,0.1-0.3,0.2l-0.2,0.1l0,0.1c0,0,0,0,0,0.1c-0.1,0-0.1,0.2-0.1,0.4c0,0,0.1,0,0,0.1c0.1,0,0.1,0,0.2,0.1
		c0.1,0,0.1,0.2,0.2,0.3c0.1,0.2,0.2,0.2,0.3,0.4c0.2,0.2,0.3,0.4,0.5,0.6c0,0.1,0.1,0.2,0.2,0.3c0.2,0.2,0.4,0.4,0.6,0.5
		C56.2,73.2,56.6,73.2,56.8,73.1z"/>
	<path class="st0" d="M82.3,65.7l-1,1.3c-0.2,0.3-0.5,0.5-0.8,0.8c-0.2,0.1-0.2,0.3-0.4,0.4c-0.8,0.8-1.7,1.6-2.5,2.5L75,73.2
		c-1,1.1-2.1,2.2-3.1,3.3c-0.9,0.9-1.7,1.9-2.7,2.8l-0.5,0.5c-0.3,0.4-0.6,0.6-0.9,0.9c0,0.1-0.1,0.2,0,0.3c0,0,0,0,0.1,0
		c0,0,0,0,0.1,0c0.1,0,0.3,0,0.5,0s0.4,0.1,0.6,0.1c0.6,0.1,1.4,0.2,2.3,0.4c0.2,0,0.4,0.1,0.5,0c0.7,0.1,1.5,0,2.2,0l0.1,0
		c0.1,0,0.2,0,0.3,0c0.3,0,0.6-0.2,0.8-0.4c0.4-0.3,0.6-0.7,0.8-1c0.2-0.5,0.5-0.9,0.7-1.3c0.2-0.4,0.3-0.8,0.5-1.2
		c0.3-0.7,0.6-1.5,0.9-2.2c0.2-0.3,0.3-0.5,0.4-0.9c0.3-0.6,0.6-1.2,0.9-1.7c0.2-0.4,0.4-0.7,0.6-1.1l0-0.1c0.3-0.4,0.6-0.7,0.7-1
		c0.4-0.5,0.7-1,1.1-1.5l0.8-1.1c0.2-0.2,0.4-0.4,0.6-0.6l0.2-0.1c0.4-0.3,0.7-0.7,1.1-0.9c0.1,0,0.2-0.2,0.2-0.3l0.1-0.2
		c0-0.1,0-0.1,0.2-0.1c0-0.1,0-0.1,0-0.1l0-0.1c0-0.1,0-0.2-0.2-0.3l-0.1,0c-0.1,0-0.1,0-0.2-0.1c-0.2-0.1-0.2-0.1-0.4-0.2l-0.1,0
		c-0.1,0-0.1,0-0.1,0c-0.1,0-0.2-0.1-0.2-0.1l0,0c0,0,0,0-0.1,0c-0.4-0.3-0.5-0.4-0.5-0.4c-0.2-0.1-0.2-0.2-0.2-0.3
		c0-0.1-0.2-0.1-0.3,0l0,0.1l-0.2,0.5C82.7,65.2,82.5,65.5,82.3,65.7z"/>
	<path class="st0" d="M16.6,118.1c1.4-3.2,3.2-6.3,5.2-9.3c1.2-1.8,2.7-3.8,4.2-5.9l0,0c0.8-1.1,1.6-2.2,2.4-3.3l0.6-0.8
		c0.6-0.9,1.3-1.8,2-2.6c1-1.2,1.8-2.3,2.9-3.6c0.3-0.4,0.7-0.8,1-1.3l0.7-0.8l0,0l0-0.1l0.7-0.7c0.2-0.3,0.4-0.5,0.7-0.7
		c0.2-0.2,0.4-0.4,0.6-0.6c0.4-0.4,0.7-0.7,1.1-1.1l0.7-0.5c0.4-0.4,0.9-0.7,1.2-1.1c0.9-0.8,1.9-1.6,2.9-2.4c0.4-0.3,0.7-0.5,1-0.9
		c2.3-1.9,4.8-3.9,7.7-6.2c0.5-0.4,0.9-0.7,1.4-1.1l0.3-0.2c0-0.1,0.1-0.2,0-0.3l0-0.1c-0.1-0.4-0.4-0.7-0.6-1
		c-0.7-1.1-1.5-2.1-2.4-3.1c-0.5-0.7-1.1-1.3-1.7-1.7c-0.4-0.4-0.8-0.8-1.1-1.1c-0.3-0.4-0.5-0.6-0.7-0.7l-0.1-0.2l-0.1,0l-0.1,0
		c-0.1,0-0.2-0.1-0.3,0c-0.3,0.2-0.6,0.4-0.9,0.5c-0.1,0-0.1,0.2,0,0.3l0,0l0.2,0.3c0.6,1,1.2,2,1.7,3c0.4,0.8,0.7,1.6,0.9,2.4
		c0.1,0.4,0.1,0.9,0.1,1.4c0,0.3,0,0.5-0.2,0.7c0,0.3-0.1,0.4-0.2,0.7c-0.4,0.8-0.9,1.4-1.6,2c-0.6,0.5-1.2,1-1.9,1.4
		c-0.6,0.4-1.3,0.7-1.9,1.2c-0.5,0.4-1.1,0.7-1.6,1.1l-0.2,0.1c-1,0.7-2.1,1.3-3.2,1.8c-1.3,0.6-2.6,1.4-3.7,2.2l-0.2-0.1
		c-0.2,0.1-0.3,0.2-0.5,0.4c-0.2,0.1-0.3,0.2-0.5,0.4L33,86.4c-0.5,0.4-1,0.8-1.5,1.1c-0.3,0.2-0.6,0.5-0.8,0.7
		c-0.7,0.5-1.2,1.1-1.8,1.6c-3,2.7-5.7,5.8-8,9c-1.7,2.6-3,5.4-3.9,8.5c-0.1,0.2-0.2,0.5-0.3,0.7l-0.1,0.2c0,0.3-0.1,0.6-0.2,0.9
		c-0.2,0.5-0.2,1.1-0.4,1.6l-0.1,0.2c-0.1,0.6-0.2,1.3-0.3,1.8c-0.1,0.4-0.2,0.9-0.2,1.3c-0.2,1.2-0.2,2.4-0.2,3.5
		c0,0.4,0,0.8,0,1.1c0,0.6,0,1.1-0.1,1.5c0,0.1,0,0.2,0.1,0.2c0,0,0,0,0.1,0c0.1,0,0.2-0.1,0.3-0.2C16,119.7,16.2,118.9,16.6,118.1z
		 M53.9,74.7L53.9,74.7z"/>
	<path class="st0" d="M103.5,60.1L103.5,60.1l-0.1,0.4l-0.1,0.4c0,0.3-0.1,0.4-0.2,0.7c0,0.2-0.1,0.4-0.1,0.6c0,0.3-0.2,0.5-0.2,0.7
		l-0.1,0.6c-0.1,0.6-0.2,1.3-0.4,2l-0.2,1.3c0,0.3-0.2,0.5-0.2,0.9l-0.2,0.8c0,0.3-0.2,0.5-0.2,0.8l0,0.1c0,0.1-0.1,0.2,0,0.3
		c0,0.1,0,0.1-0.1,0.2c0,0.2-0.1,0.4-0.1,0.5s0,0.5,0,0.7l0,0.4c0,0.1,0,0.2,0.1,0.2l0,0c0.1,0,0.2,0,0.2-0.1
		c0.2-0.5,0.5-0.8,0.8-1.3l0.3-0.4c0.4-0.5,0.8-1.1,1.1-1.7c0.2-0.4,0.4-0.8,0.6-1.3l0.1-0.2c0-0.1,0-0.1,0-0.2c0,0,0,0,0-0.1l0-0.3
		c0-0.3,0.1-0.5,0.1-0.8l0.5-3.6c0.1-0.7,0.2-1.5,0.3-2.2l0.2-1.8c0.1-0.2,0-0.3,0-0.4c0-0.2,0-0.4,0.1-0.6l0.4-1.2
		c0-0.3,0.2-0.5,0.2-0.8c0-0.1,0-0.2-0.1-0.2c-0.1,0-0.2,0-0.2,0.1c0,0.1,0,0.1-0.1,0.2c-0.5,0.8-1,1.8-1.3,2.7
		C104.2,58.2,103.9,59.1,103.5,60.1z"/>
	<path class="st0" d="M68.7,65.9l-1.3,0.9c-1.3,0.9-2.6,1.9-4,2.9c-0.9,0.6-1.8,1.4-2.7,2l-3.5,2.7c-1.1,0.8-2.4,1.8-3.7,2.9
		c-1.5,1.2-3,2.4-4.5,3.7l-3.3,2.6c-0.4,0.3-0.7,0.6-1.1,0.9c-0.1,0-0.1,0.2,0,0.3c0.1,0,0.1,0,0.2,0.1c1.5,0.4,2.9,1.1,4.1,2
		c1.8,1.5,3.1,3.6,3.4,5.9c0,0.1,0,0.1,0.1,0.2l0,0c0.1,0,0.2,0,0.2-0.1l0.5-0.4c0.4-0.4,0.9-0.7,1.3-1.2c1.1-0.9,2.1-1.9,3.2-2.8
		c1.4-1.2,2.8-2.4,4.1-3.7l1.8-1.6c0.6-0.5,1.1-1.1,1.7-1.6l3.2-3.2c0.8-0.8,1.5-1.5,2.2-2.2c1.3-1.3,2.6-2.5,3.7-3.7l2.7-2.7
		c0.9-0.8,1.8-1.6,2.7-2.4c0.2-0.1,0.3-0.2,0.4-0.4c0.2-0.3,0.5-0.4,0.7-0.7c0.4-0.4,0.7-0.7,1.1-1.1c0.2-0.3,0.4-0.5,0.7-0.7
		c0.4-0.5,0.8-1,1.2-1.4l0.3-0.4c0.7-0.9,1.4-1.8,1.2-2.6c-0.2-0.7-0.7-1.2-1.3-1.4c-2-1.2-3.9-0.2-5.6,0.7c-1.7,1-3.3,2.2-4.9,3.3
		C71.8,63.7,70.3,64.8,68.7,65.9z M54.9,84.4c0,0.1-0.1,0.2-0.2,0.3l0,0.1l0,0.1c-0.1,0.2-0.2,0.2-0.3,0.4c-0.2,0.3-0.5,0.5-0.7,0.8
		l-0.2,0.2c-0.3,0.4-0.7,0.7-1.1,0.9c-1.1,0.6-2-0.5-2.9-1.5c-0.2-0.3-0.5-0.6-0.8-0.9c-0.1-0.2-0.2-0.3-0.2-0.5
		c0-0.2,0.1-0.4,0.3-0.5c0.9-0.6,1.7-1.4,2.2-2.3c0.1-0.2,0.3-0.4,0.5-0.4c0.1,0,0.3,0,0.4,0.1c0.1,0,0.1,0,0.2,0.1
		c0.5,0.4,0.9,0.7,1.4,1.2c0.4,0.4,0.9,0.8,1.3,1.1c0.1,0,0.2,0.1,0.1,0.2C55,83.7,55.1,84,54.9,84.4C54.9,84.3,54.9,84.3,54.9,84.4
		L54.9,84.4z"/>
	<path class="st0" d="M53.2,83.7c-0.2-0.2-0.4-0.4-0.6-0.6c-0.2-0.2-0.4-0.4-0.6-0.6c-0.1,0-0.2-0.1-0.4-0.1c-0.1,0-0.2,0.1-0.3,0.2
		c-0.4,0.5-0.9,0.9-1.3,1.3c-0.2,0.2-0.2,0.5,0,0.7c0.3,0.4,0.5,0.7,0.9,1c0.1,0.2,0.3,0.2,0.4,0.3l0,0c0.2,0.1,0.4,0.1,0.5,0
		c0.2-0.1,0.2-0.2,0.4-0.3l0-0.1c0.2-0.1,0.3-0.4,0.5-0.6c0.2-0.2,0.3-0.4,0.5-0.6C53.4,84.1,53.4,83.9,53.2,83.7z"/>
	<path class="st0" d="M38.9,89.3l-0.8,0.9c-0.2,0.1-0.2,0.2-0.4,0.3c-0.2,0.2-0.2,0.4,0,0.6c0.1,0,0.1,0,0.2,0.1l0,0
		c0.9,0.5,1.5,0.2,1.8-0.3c0.1-0.2,0.3-0.5,0.4-0.8c0.1-0.2,0-0.4-0.1-0.5c-0.1,0-0.1-0.2-0.2-0.2l0,0c-0.1,0-0.2-0.1-0.3-0.2
		C39.3,89.1,39.1,89.1,38.9,89.3z"/>
	<path class="st0" d="M86.9,84l-0.5-0.1c-0.5,0-1.1-0.2-1.8-0.3c-0.5,0-1-0.1-1.6-0.2l0,0c-0.5-0.1-1.1-0.1-1.8-0.2
		c-0.7,0-1.3-0.1-2-0.1l-0.6,0.1c-0.5,0-1,0-1.5,0l-1.9,0l-0.1,0c-0.1,0-0.1,0-0.2,0c-0.1,0-0.3,0-0.4,0.1c-0.1,0-0.2,0-0.3,0
		c-0.8,0.1-1.5,0.1-2.4,0.1l-0.1,0c-0.9-0.1-1.7-0.1-2.4-0.2l-0.2,0c-1.1,0-2.2,0-3.3-0.3c0-0.1,0-0.1-0.1-0.2c-0.1,0-0.2,0-0.3,0.2
		c-0.2,0.5-0.5,0.8-0.9,1.1l-2,1.8c-1.7,1.7-3.5,3.2-5.4,4.9c-0.7,0.6-1.4,1.2-2,1.8l-10.9,9.9c-1.3,1.1-2.4,2.1-3.5,3
		c-2.2,1.8-4.4,3.6-6.8,5.1l-0.5,0.3c-0.4,0.3-0.7,0.5-1.1,0.7c-0.5,0.3-1.1,0.6-1.6,0.9l-3,1.8c-0.7,0.4-1.4,0.9-2,1.3
		c-0.2,0.1-0.4,0.3-0.6,0.4l-2.4,1.6c-0.4,0.3-0.7,0.5-1.2,0.8c-1,0.7-1.9,1.2-2.6,1.7c-0.1,0-0.1,0.2,0,0.3l0.1,0
		c0.1,0,0.1,0,0.2,0c0.4-0.1,0.8-0.2,1.3-0.3c0.6-0.1,1.3-0.2,2-0.3c0.9-0.1,1.9-0.2,2.9-0.4c0.5-0.1,1.1-0.2,1.7-0.3
		c0.3,0,0.7-0.2,1.1-0.2c0.8-0.2,1.5-0.3,2.4-0.6l0.5-0.1c2.1-0.6,4.1-1.4,6.1-2.2c4.8-2.2,9.4-4.9,13.6-8.2
		c4.9-3.6,9.6-8.5,14.5-13.6c0.6-0.7,1.3-1.3,1.9-2c0.2-0.3,0.5-0.5,0.8-0.8l0.2-0.3c0.2-0.3,0.5-0.5,0.7-0.8l0.5-0.6
		c0.5-0.6,1-1.3,1.6-1.8c0.8-0.8,1.7-1.4,2.7-1.8c0.4-0.1,0.8-0.2,1.2-0.3c0.1,0,0.3,0,0.4-0.1c0.3,0,0.6-0.1,1-0.1
		c0.2,0,0.4,0,0.6,0c0.9,0,1.9-0.1,3.2-0.1c1.6,0,3.3,0.1,4.9,0.1l0.9,0c0.1,0,0.1,0,0.2-0.1l0.1-0.2c0.1-0.2,0.4-0.5,0.6-0.7
		c0,0,0,0,0-0.1l0.4-0.7C87,84.1,87.1,84,86.9,84C87,84.1,86.9,84.1,86.9,84z"/>
	<path class="st0" d="M22.2,117.3c0.6-0.5,1.3-1,2-1.5l0.7-0.5c0.7-0.5,1.4-1.1,2.2-1.6c0.6-0.4,1.3-0.8,1.9-1.3l1-0.7
		c0.3-0.2,0.7-0.4,1-0.7l0.6-0.4c0.3-0.2,0.6-0.5,1-0.7c0.2-0.1,0.4-0.3,0.6-0.4c2.3-1.6,4.4-3.4,6.5-5.2c1-0.9,2.1-1.8,3.4-3
		c1.1-1.1,2.4-2.2,3.5-3.2c1.3-1.2,2.7-2.4,4-3.6c0-0.1,0-0.1,0.1-0.2c0-2.4-0.9-4.6-2.7-6.2c-2.3-1.8-4.1-2.4-5.5-1.8
		c-0.1,0-0.2,0.1-0.3,0c-0.1,0-0.1,0-0.2,0.1c0,0.1-0.1,0-0.2,0.1c0,0.1,0,0.1-0.2,0.1L40.2,88c0,0.1,0,0.1-0.1,0.2
		c0,0.1,0,0.1,0.1,0.2c0.4,0.3,0.7,0.6,0.8,1c0.1,0.7-0.2,1.5-0.7,2.1c-0.7,1.1-2,1.2-3.7,0.3c-0.1,0-0.1,0-0.2-0.1
		c0,0-0.1,0-0.2,0.1c-0.3,0.4-0.7,0.7-0.9,1.1l-0.3,0.4c0,0.1,0,0.3,0,0.3l0.1,0c0.1,0,0.1,0,0.2,0.1c0.1,0,0.2,0.1,0.3,0
		c0.2,0.1,0.4,0.2,0.5,0.4c0,0.1,0.1,0.2,0,0.4c-0.3,1-0.2,1.6,0.2,2.1c0.8,0.7,2.4,0.2,3.3-0.2c0.1,0,0.3,0,0.5,0l0,0
		c0.2,0.1,0.3,0.2,0.4,0.4c0.2,0.4,0.3,0.7,0.6,1.2c0.4,0.7,0.8,1.5,0.7,2.1c-0.2,1.1-0.9,1.9-2,2.3c-2,1.4-4.3,2.1-6.8,2.3
		c-2.7,0-3-3-3-4c0-0.4,0-0.8,0-1.1c0-0.1,0-0.2-0.2-0.3c-0.1,0-0.2,0-0.2,0.1l-0.6,0.7c-0.7,0.9-1.4,1.8-2.1,2.7l-0.5,0.5
		c-1.7,2.1-3.1,4-4.4,5.7c-1.8,2.5-3.5,5.1-5.1,7.8c-0.7,1.1-1.2,2.2-1.5,2.9c-0.3,0.6-0.5,1-0.7,1.3c0,0.1-0.1,0.2,0,0.2
		c0.1,0,0.2,0.1,0.2,0.1l0.2,0c0.1,0,0.1,0,0.2-0.1c0.1,0,0.2,0,0.4-0.1l0.4-0.1c0,0,0,0,0.1,0c0.5-0.4,1.1-0.7,1.8-1.3
		c0.6-0.4,1.3-0.9,1.9-1.4C21,118.2,21.5,117.7,22.2,117.3z M43.4,95.9L43.4,95.9c-0.2-0.1-0.2-0.3-0.2-0.6c0-0.1,0-0.1,0-0.1
		c-0.1-0.2-0.1-0.4,0.1-0.5c0.6-0.9,1.4-2,2.3-2c0.2,0,0.5,0,0.6,0.1c0.2,0.1,0.4,0.3,0.5,0.4c0.4,0.4,1.1,1.3,0.6,2.4
		c-0.2,0.4-0.6,0.8-0.9,1.1c-0.2,0.2-0.4,0.5-0.6,0.7l0,0.1l0,0.1c-0.2,0.3-0.6,0.5-0.9,0.3c-0.2-0.1-0.3-0.2-0.4-0.4
		C44.2,96.7,43.9,96.3,43.4,95.9z"/>
	<path class="st0" d="M94.1,74.2L94.1,74.2l0.1-0.2c0.6-1.1,1.4-2,2.2-2.9c0.1-0.2,0.2-0.2,0.3-0.4l0-0.1c0-0.1,0.1-0.2,0-0.3
		c-0.4-0.7-0.7-1.5-0.9-2.2c0-0.1,0-0.1-0.1-0.2c0-0.1,0.1-0.2,0-0.2l0,0l0,0c0-0.1,0-0.2-0.1-0.2c-0.4-0.2-0.7-0.4-1-0.6
		c-0.5-0.2-0.8-0.5-1.2-0.7l-0.8-0.4l-0.1,0c-0.7,0-2.5-0.6-7.7-3.2c-0.1,0-0.2,0-0.2,0.1c0,0.1-0.1,0.2-0.2,0.3
		c0,0.1-0.1,0.2,0,0.2c0,0.1,0,0.1,0.1,0.2c0.2,0.1,0.2,0.1,0.4,0.2c0,0,0,0,0.6,0.4l0,0l0.1,0c0.1,0,0.1,0,0.2,0.1l0,0
		c0,0,0,0,0.1,0s0.2,0.1,0.2,0.1c0.3,0.2,0.5,0.4,0.8,0.5c0.3,0.2,0.5,0.6,0.6,0.9c0,0.1,0,0.1,0.1,0.2c0,0,0,0.1,0,0.1
		c0,0.1,0,0.1,0,0.2l0,0.3c-0.1,0.2,0,0.3-0.1,0.4c0,0.1-0.2,0.2-0.2,0.3l0,0.1c-0.1,0.2-0.1,0.2-0.2,0.3c-0.1,0.2-0.2,0.3-0.4,0.3
		c-0.3,0.2-0.6,0.5-0.9,0.7l-0.2,0.2c-0.3,0.2-0.6,0.5-0.9,0.7l-0.2,0.3c0,0.1-0.2,0.1-0.2,0.2l-0.7,0.8c-0.4,0.3-0.6,0.7-0.9,1.1
		c-0.1,0.2-0.3,0.4-0.4,0.5c-0.9,1.2-1.7,2.6-2.4,4c-0.3,0.6-0.6,1.4-0.8,2c-0.1,0.2-0.2,0.5-0.3,0.7c-0.3,0.8-0.7,1.6-1.1,2.4
		c0,0.1-0.1,0.2,0,0.2c0,0.1,0.1,0.2,0.2,0.1c2.9-0.1,5.3,0,7,0.2l0.8,0c0.7,0,1.3,0,1.6,0l1.1,0c0.1,0,0.2,0,0.2,0.1
		c0.1,0,0.1,0,0.2,0.1s0.1,0,0.2-0.1c1.6-2.6,3.3-5.1,5.4-7.4L94.1,74.2z"/>
	<path class="st0" d="M93.4,86.5c-0.6-0.7-1.5-1.1-2.4-1.3c-2.2-0.4-3.8,0.4-4.5,2.5c0,0.3-0.2,0.5-0.1,0.8c0,0.1,0.1,0.2,0.2,0.3
		c0.1,0,0.2,0,0.2-0.1c0.3-0.5,0.6-1.1,1.1-1.5c0.4-0.4,0.9-0.6,1.5-0.7c0.4,0,0.8,0,1.2,0.2c0.2,0.1,0.4,0.2,0.6,0.3L91,86.9
		c-0.1,0-0.3,0-0.4,0c-0.3,0-0.6,0.1-1,0.2c-0.4,0.1-0.7,0.4-0.9,0.7c-0.6,1-1,2-1.1,3.3c-0.1,0.6-0.2,1.4-0.4,2.2
		c0,0.2-0.1,0.4-0.1,0.6c0,0.1,0,0.2,0.1,0.2l0,0c0.1,0,0.2,0.1,0.2,0c0.1,0,0.3-0.2,0.4-0.2c0.4-0.2,0.7-0.4,1-0.6
		c0.3-0.2,0.6-0.4,0.9-0.5c0.6-0.4,1.2-0.7,1.9-0.9c0.5-0.2,1-0.4,1.3-0.7c0,0,0-0.1,0.2-0.1c0-0.1,0.1-0.2,0.1-0.2l0-0.1l0-0.1
		l0-0.1c0-0.1,0-0.1,0-0.2c0-0.1,0-0.2,0-0.3c0-0.4-0.1-0.7-0.2-1.1l0-0.2c0-0.2,0-0.3-0.1-0.4c0.1,0.2,0.3,0.4,0.4,0.5
		c0.4,0.6,0.5,1.4,0.3,2.1c-0.2,0.8-0.7,1.5-1.5,1.9c-0.1,0-0.2,0.2,0,0.3c0,0.1,0.1,0.2,0.2,0.1c0.5,0,1-0.2,1.4-0.5
		c0.7-0.6,1.3-1.5,1.3-2.5C95.2,88.9,94.6,87.4,93.4,86.5z"/>
	<path class="st0" d="M123.5,82.7c-0.1-0.4-0.5-0.9-1.3-1.5l0,0c-0.7-0.4-1.4-0.8-2.2-1.3l-1.4-0.7l-0.2-0.1
		c-0.2-0.1-0.4-0.2-0.6-0.3l-0.7-0.5c-1.1-0.6-2.2-1.4-3.5-2.2l-0.9-0.6c-0.4-0.2-0.7-0.5-1.1-0.7c-0.2-0.1-0.5-0.2-0.6-0.3
		c-0.2-0.1-0.3-0.2-0.5-0.2l-0.2-0.1c-0.2-0.1-0.4,0.2-0.4,0.2c-0.2,0.2-0.3,0.4-0.5,0.5c0,0.1-0.1,0.2-0.1,0.2c0,0.1,0,0.1,0.1,0.2
		l0.2,0.1c8.3,4.2,9.9,5.5,10.2,5.8c-0.5,0-2.7-0.6-12.4-5.4c-0.1,0-0.2,0-0.2,0.1c-0.2,0.3-0.3,0.5-0.4,0.8
		c-0.2,0.4-0.4,0.7-0.6,1.1c-0.2,0.5-0.4,1-0.7,1.6c-0.9,2-1.9,4-3,6c-0.8,1.4-1.7,2.7-2.6,3.9c-0.4,0.5-0.8,1.1-1.3,1.6
		c0,0.1-0.1,0.2,0,0.3c0.1,0,0.2,0.1,0.2,0c0.2-0.1,0.6-0.2,0.8-0.3c1.2-0.5,2.3-1.1,3.4-1.8c0.9-0.7,1.8-1.4,2.6-2.3l0.1-0.2
		c0.3-0.4,0.7-0.8,1.2-1.2c0.5-0.4,1.1-0.6,1.7-0.8c0.5-0.1,1.1-0.2,1.6-0.2c0.5,0,0.9,0.1,1.3,0.1l0.4,0c0.4,0,0.7,0,1.1,0
		c0.4,0,0.8-0.1,1.2-0.1c1.2-0.1,2.4-0.3,3.4-0.5c0.3,0,0.6-0.1,0.9-0.2l0.7-0.1c0.3,0,0.7,0,1-0.1s0.7,0,1-0.1c0.2,0,0.3,0,0.4-0.1
		c1-0.1,1.7-0.2,1.9-0.5C123.5,83.1,123.5,82.9,123.5,82.7z"/>
	<path class="st0" d="M37.1,102.7L37.1,102.7c0.1,0,0.2,0.1,0.2,0c0.6-0.2,1.1-0.5,1.7-0.8c0.7-0.5,2.1-1.3,1.3-2.9
		c0-0.1-0.2-0.3-0.2-0.4c0-0.1-0.1-0.2-0.2-0.3c0-0.1-0.1-0.2-0.2-0.1c-0.9,0.2-1.8,0.3-2.7,0c-0.1,0-0.2,0.1-0.3,0.2
		c0,0,0,0.1,0,0.1c0.3,1.3,0.3,2.6,0.3,4C37,102.6,37,102.6,37.1,102.7z"/>
	<path class="st0" d="M104.5,79.1c0.3-0.6,0.7-1.1,0.9-1.6l0.1-0.2c0.1-0.2,0.2-0.5,0.4-0.9c0.2-0.5,0.4-1,0.6-1.6
		c0.1-0.2,0.1-0.4,0.2-0.5c0.1-0.2,0-0.3,0.1-0.4c0-0.1,0-0.3,0.1-0.4c0-0.3,0.1-0.5,0.1-0.7l0-0.6c0-0.2,0-0.4-0.1-0.6
		c-0.1-0.4-0.2-0.9-0.4-1.4c-0.2-0.6-0.5-1.1-1-1.5c-0.5-0.3-0.7-0.3-0.9,0.1c-0.1,0.2-0.2,0.3-0.3,0.4c-1,1.1-1.9,2.2-2.7,3.4
		c-0.4,0.6-0.7,0.7-0.9,0.6c-0.2-0.1-0.4-0.5-0.3-1.3c0-0.4,0-0.9,0.1-1.3c0-0.2,0-0.4,0-0.6l0-0.1c0-0.1,0-0.1-0.1-0.2
		c-0.1,0-0.2,0-0.2,0c-0.9,0.7-1.8,1.4-2.6,2.3c-1.1,1.1-1.9,2-2.4,2.6c-0.2,0.1-0.3,0.4-0.4,0.5c0,0.1-0.1,0.2-0.2,0.3
		c-0.4,0.5-0.7,1.1-1.2,1.8c-1.1,1.6-2.6,3.9-4.2,6.7c0,0.1-0.1,0.2,0,0.2c0.1,0,0.2,0.1,0.2,0.1c0.1,0,0.3,0,0.4,0
		c0.7,0,1.2,0.1,1.8,0.4c0.1,0,0.2,0.1,0.2,0.1l0.1,0c0.8,0.3,1.6,0.7,2.3,1.3c0.6,0.5,1.2,1,1.5,1.7c0.5,0.9,0.8,1.9,0.7,2.9l0,0.1
		c0,0.1,0,0.2,0.1,0.2l0,0c0.1,0,0.2,0,0.2-0.1c0.7-0.7,1.4-1.4,2-2.2c1-1.2,1.8-2.4,2.6-3.7c1.1-1.7,1.9-3.3,2.6-4.5
		C104.1,79.9,104.3,79.5,104.5,79.1z"/>
	<path class="st0" d="M35.3,98.9c-0.1,0-0.2-0.1-0.2,0c-0.2,0.1-0.5,0.2-0.7,0.3c-0.7,0.4-1.3,0.7-2,1.1c-0.1,0-0.3,0.2-0.4,0.1
		c-0.1,0-0.1,0-0.2,0.1c0,0.1,0,0.1-0.1,0.2c0,0.9,0,2.4,0.8,2.7l0.1,0c0.7,0.3,1.6,0.2,2.4,0c0.1,0,0.3,0,0.4-0.1
		c0.1,0,0.2-0.1,0.2-0.2c0.1-1.3,0.1-2.7-0.2-4C35.4,99,35.4,99,35.3,98.9z"/>
	<path class="st0" d="M35,95.2c0-0.1-0.1-0.2-0.2-0.3c-0.1,0-0.1,0-0.2,0l-0.1,0c-0.1,0-0.1,0-0.2,0.1c-1,1-1.8,2.2-2.3,3.6
		c0,0.1,0,0.2,0.1,0.2c0,0,0,0,0.1,0c0.1,0,0.2,0.1,0.2,0c0.4-0.2,0.8-0.4,1.2-0.6c0.5-0.2,1.1-0.5,1.6-0.9c0.1,0,0.1-0.2,0-0.3
		C34.9,96.5,34.9,95.8,35,95.2z"/>
	<path class="st0" d="M45.5,95.8c0.2-0.1,0.2-0.3,0.4-0.4l0,0c0.4-0.3,0.5-0.8,0.2-1.3c0,0-0.1,0-0.1-0.2c-0.2-0.3-0.5-0.4-0.7-0.3
		c-0.1,0-0.2,0.1-0.2,0.2c-0.2,0.3-0.5,0.5-0.6,0.9c-0.1,0.2-0.1,0.4,0,0.5c0.1,0.2,0.2,0.3,0.4,0.5c0.1,0,0.1,0.2,0.1,0.2
		c0.1,0,0.1,0,0.2,0.1C45.3,96,45.4,96,45.5,95.8z"/>
</g>
</svg>
