<?xml version="1.0" encoding="utf-8"?>
<!-- Generator: Adobe Illustrator 25.4.0, SVG Export Plug-In . SVG Version: 6.00 Build 0)  -->
<svg version="1.1" id="Layer_1" xmlns="http://www.w3.org/2000/svg" xmlns:xlink="http://www.w3.org/1999/xlink" x="0px" y="0px"
	 viewBox="0 0 100 125" style="enable-background:new 0 0 100 125;" xml:space="preserve">
<style type="text/css">
	.st0{fill-rule:evenodd;clip-rule:evenodd;fill:#FFFFFF;}
</style>
<path class="st0" d="M71,64.3c-0.6-2.5,0.2-4.2,2.8-4.3c6.4-0.2,12.8-0.3,18.5,3.4c3.3,2.1,3.9,5.7,5.2,8.8c0.6,1.3-0.7,2.4-1.9,2.4
	c-7-0.1-14.3,2.2-20.8-2.4C73.2,69.7,71.6,67.2,71,64.3z"/>
<path class="st0" d="M86.2,80.5c-6.1,0-12.5,0-18.9,0c-1.6,0-3.2,0.2-3.3-2.2c0-2.3,1.5-2.4,3.2-2.4c9.4-0.1,18.8-0.1,28.2-0.3
	c2.5,0,3.1,1.4,3.3,3.4c0.1,2.6-1.8,2.1-3.3,2.1c-3.1,0-5.6-0.1-8.3,3c-4.9,5.7-13.9,4.1-17.5-3C75.4,81.3,81.2,86.1,86.2,80.5z"/>
<path class="st0" d="M18.8,72c-0.4,6.5-1.9,9-5.7,9.1c-2.7,0.1-5.3-2.3-5.5-5.1c-0.2-3.3,2-5.4,5.9-5.5c-0.1,2-2.2,3.2-2.1,5.3
	c0,0.4,0.2,0.7,0.4,1.1C15.4,70.6,19,64.3,22.7,58c0.5-0.8,0.8-2,2.3-1.1c1.3,0.8,1.2,1.7,0.4,2.5c-2.6,2.9-2,5.5,0,8.6
	c2.3,3.4,1.5,7.8,2.5,11.8c0.3,1.4-0.7,1.5-1.6,1.5c-2.7,0.2-4.4-1.2-5.4-3.6C20,75.9,19.4,73.9,18.8,72z"/>
<path class="st0" d="M31.9,67.9c0-2-0.9-4-1.9-5.4c-2.3-3.3-1.6-5.9,0.9-8.6c1.1,1.8,1.3,4.1,3.1,5.3c0.7,0.4,0.9,0.9,0.3,1.5
	c-1,0.9-1.9,1.9-1.4,3.4c0.9,2.4,1.8,4.9,3,7.2c0.5,0.9,2.3-0.7,3,0.8c3.6,7,7,7.9,18.5,4.6c-2.7-3.1-3.5-6.3,0.4-9
	c0.5,0.5,1.2,1.3,1.9,2c0.2,0.5,0.3,0.9,0.5,1.4c-0.3,1.8,2.5,3.9-0.7,5.2c0.6,1.2,1.5,0.9,2.2,0.9c1,0,1.8,0.2,1.7,1.5
	c-0.1,1.1-1.1,1-1.8,1C55.7,79.5,50,81,44.2,81.9c-5.1,0.8-14-5.4-14.8-10.5C28.9,69.4,29.6,67.9,31.9,67.9
	c-1.2,5.3,5,12.2,10.4,11.2C38.6,75.5,33.3,73.4,31.9,67.9z"/>
<path class="st0" d="M47.5,51.5c2,1.9,5.9,3.9,5.2,6.1c-0.7,2.4-5,1-7.6,1.6c-1.6,0.4-3.4,0.1-5,0.1c-2.7,0-5.3-0.5-6.3-3.5
	c-1-3.1,0.4-5.2,3-6.7C40.6,48.5,43.9,50.5,47.5,51.5z"/>
<path class="st0" d="M12.6,67.4c-1,0.5-2.1,1-3.1,1.6c-2.7,1.5-4.2,3.9-4.1,7c0.1,3.2,1.7,5.5,4.6,6.7c3,1.3,5.9,0.7,8.3-1.5
	c0.9-0.8,1.3-2.7,3.2-0.8c1.7,1.8,0.6,2.7-0.5,3.8c-4.3,4.1-11.1,4.2-15.7,0.2c-4.4-3.9-5.2-10.5-1.9-15.3c2.6-3.7,6.1-1.5,9.3-1.7
	L12.6,67.4z"/>
<path class="st0" d="M56.3,62.7c0-2.5-2.1-4.4-2.5-7.3c1.8,0.9,3.2,1.6,4.7,2.2c2.3,0.8,4.7,1.3,6.7-0.4c4.4-3.7,9.5-2.7,14.5-2.5
	c1.8,0.1,3.2,0.9,3,2.8c-0.2,2.2-2.1,1.5-3.3,1.4c-4.6-0.4-8.9-0.2-11.6,4.2c-3.8,0.6-7.6,0.3-11.4-0.1L56.3,62.7z"/>
<path class="st0" d="M30.7,50.4c-0.9,1.7-1.8,3.4-2.7,5.1c-0.4,0.8-0.8,1.8-2,0.9c-0.8-0.5-2.1-0.7-1.3-2.2c0.6-1.2,0.8-2.6,0.3-3.8
	c-1.9-5.2,0.3-9.1,3.6-12.9c2-2.3,3.7-4.9,5.9-7.2c0,5.3-2.1,9.8-5.1,14C27.4,46.9,27.4,49,30.7,50.4L30.7,50.4z"/>
<path class="st0" d="M59.7,69.7c0-1.6-2.3-3.8-0.7-4.4c2.6-1,5.8-1.1,8.7,0.3c0.4,0.2,0.8,0.6,1.2,0.9c0.2,0.5,0.4,1,0.7,1.5
	c1.3,2.7,0.6,5.2-1.5,6.8c-2.3,1.7-5.8-0.2-7.9-3.6C60,70.6,59.8,70.1,59.7,69.7z"/>
<path class="st0" d="M53.2,68.5c-1.7,1,2.3,3.3-1.1,3.8c-3-0.2-5.2-2.8-8.4-2.2c-1.4-0.2-2.8-0.5-4.2-0.7c-0.6-0.3-1.3-0.7-1.9-1
	c0-0.2-0.1-0.3-0.1-0.5c0.2-1.7-0.7-1.9-2.1-1.1c0.3-1.3,0.7-2.6,1-3.9c3.6-3.8,8-3.4,12.6-1.8c1.8,1.8,2.4,4.1,3,6.4
	C52,68.2,52.4,68.6,53.2,68.5z"/>
<path class="st0" d="M12.7,67.5c-3.1-2.6-6.7-0.8-10-1.3c2.1-4.3,11.4-7.1,15.1-4.6c0.8,0.5,0.8,1.1,0.4,1.5
	c-1.3,1.3-0.9,4.3-3.7,4.2c-0.6,0-1.2-0.4-1.8,0C12.6,67.4,12.7,67.5,12.7,67.5z"/>
<path class="st0" d="M18,49.9c0.1-0.8,0.3-1.9,0.4-2.9c0.2-1.5,1.2-1.8,2.5-1.8c1.2,0,2.3,0.1,2.5,1.7c0.2,1.8,0.6,3.6,0.7,5.4
	c0,1.8-0.8,3.1-3,3.3c-2.5,0.2-2.7-1.4-2.9-3.2C18.2,51.6,18.1,50.8,18,49.9z"/>
<path class="st0" d="M30.7,50.4c-1.1-1.9-3.1-3.9,0.7-5.1c0.4-0.1,0.7-0.8,0.9-1.2c2.2-5.3,7.6-8,10-13.6c0.9,3,0.7,2.8-1.3,4.2
	c-1.6,1.1-1.5,2.8-0.5,4.4c-0.1,0.6-0.1,1.2-0.2,1.7c0.6,1,1.1,2,0.5,3.7c-1.2-1.8-3-2.9-2.6-6.2C34.7,42.4,32.9,46.5,30.7,50.4
	L30.7,50.4z"/>
<path class="st0" d="M62.1,81.8C57,84.3,51.7,82.7,46.4,83C51.6,81.5,56.8,80.7,62.1,81.8z"/>
<path class="st0" d="M40.3,40.7c0.1-0.6,0.1-1.2,0.2-1.7c0.9-0.3,1.5-1.6,2.6-0.4c1,1.1,2.4,2,3.1,3.2c0.4,0.7-0.7,1.2-1.6,0.9
	C43.2,42.1,41.8,41.4,40.3,40.7z"/>
<path class="st0" d="M49.4,77.2c0.1-2.9,2.7-3.4,4.1-4.9C55.1,76.3,54.5,77.1,49.4,77.2z"/>
<path class="st0" d="M42,70.2c4.4,0.9,4.6,4.3,6.6,6.7C42.2,78.1,41.2,77,42,70.2z"/>
</svg>
