<?xml version="1.0" encoding="utf-8"?>
<!-- Generator: Adobe Illustrator 25.4.0, SVG Export Plug-In . SVG Version: 6.00 Build 0)  -->
<svg version="1.1" id="Layer_1" xmlns="http://www.w3.org/2000/svg" xmlns:xlink="http://www.w3.org/1999/xlink" x="0px" y="0px"
	 viewBox="0 0 100 125" style="enable-background:new 0 0 100 125;" xml:space="preserve">
<style type="text/css">
	.st0{fill:#FFFFFF;}
</style>
<g>
	<path class="st0" d="M96.6,56.8l-0.2-0.4l-0.2,0.4c-0.4,0.7-1.2,2.7,0.2,5.1l0.2,0.3l0.2-0.3C98,60,97.6,58.8,96.6,56.8z
		 M96.6,61.4c-0.8-1.7-0.5-3.1-0.2-3.9C97.1,59,97.4,59.9,96.6,61.4z"/>
	<path class="st0" d="M37,54.9L37,54.9l8.5-7l-1.5-1L43.9,47c-1.2,0.7-5.6,3.1-9.7,7L34,54.2l0.4,0.1C35.7,54.7,36.7,54.9,37,54.9z
		 M44,47.5l0.7,0.5l-7.8,6.5c-0.3,0-1.1-0.1-2.1-0.4C38.7,50.5,42.7,48.2,44,47.5z"/>
	<path class="st0" d="M6.2,60.6c0.1-1-0.3-2.4-0.5-2.9l-0.1-0.2l-2.3,0.6L4,61.5l2.2-0.7V60.6z M4.4,60.9l-0.5-2.4l1.5-0.4
		c0.2,0.6,0.5,1.5,0.4,2.3L4.4,60.9z"/>
	<path class="st0" d="M96.2,56.4c-0.2-0.4-0.4-0.8-0.6-1.3c-1-0.1-7.2-0.7-10.5-0.7H85c-0.1,0-10.6-4.6-18.9-6.6
		c-4.4-1.1-9.3-1.7-13.8-1.7c-3.2,0-5.9,0.3-7.8,0.9l1.4,0.9l-8.7,7.3h-0.1c-0.1,0-1.4-0.1-3.2-0.7c-0.8,0-15,0.2-21.2,0.8
		c-6,0.6-8.3,1-9.7,2.1l0.6,0.3v0.1l2.3-0.6L6,57.4c0,0.1,0.8,2,0.6,3.4v0.1l-2.1,0.7l0.1,0.6l-1.9,1l2.2,3.7c0.6,0.2,4.2,1.7,7,1.7
		l0,0c-0.1-0.5-0.1-1-0.1-1.5c0-4.4,3.6-7.9,7.9-7.9c4.4,0,7.9,3.6,7.9,7.9c0,0.5,0,1-0.1,1.5H69c-0.1-0.5-0.1-1-0.1-1.5
		c0-4.4,3.6-7.9,7.9-7.9c4.4,0,7.9,3.6,7.9,7.9c0,0.1,0,0.3,0,0.4c1-0.1,1.8-0.2,2.5-0.3c0.5-0.1,1-0.1,1.5-0.2
		c3.7-0.5,5-0.7,7.4-3.9c0.2-0.3,0.4-0.6,0.6-0.8C94.6,59.4,95.8,57,96.2,56.4z M47,49.5c0.8-0.5,2.4-1.3,4.8-1.3c0.4,0,0.7,0,1.1,0
		c4.5,0.4,9.6,1.2,9.6,1.2l0,0c0,0,0.5,0,0.7,0.4c0.1,0.2,0.2,0.5,0.1,0.9c-0.3,1.3-1.1,2.9-1.4,3.5H45.8C45.8,52.3,46.7,50,47,49.5
		z M61.7,56.4c0,0.2-0.1,0.3-0.3,0.3h-3.1c-0.2,0-0.3-0.1-0.3-0.3s0.1-0.3,0.3-0.3h3.1C61.5,56.1,61.7,56.3,61.7,56.4z M45.5,50.7
		c-0.3,1-0.6,2.3-0.6,3.6h-3.6L45.5,50.7z M68.9,59.3c0,0.1-0.1,0.2-0.2,0.3s-0.2,0.3-0.3,0.5c-0.1,0.2-0.2,0.4-0.4,0.6
		c-0.3,0.5-0.5,1.1-0.8,1.8c-0.1,0.3-0.3,0.8-0.6,1.1c-0.3,0.4-0.7,0.6-1.2,0.8s-1,0.3-1.6,0.3c-0.5,0-1,0-1.6,0.1
		c-1.1,0-2.2,0.1-3.4,0.1S56.4,65,55.1,65s-2.5,0-3.8,0.1c-1.3,0-2.5,0-3.8,0s-2.5,0-3.7,0c-2.4,0-4.6,0-6.5-0.1
		c-1.9,0-3.5-0.1-4.6-0.1c-1.1,0-1.8-0.1-1.8-0.1s0.6,0,1.8-0.1c1.1-0.1,2.7-0.2,4.6-0.2c1.9-0.1,4.1-0.2,6.5-0.2
		c1.2,0,2.4-0.1,3.7-0.1s2.5,0,3.8-0.1c1.3,0,2.5,0,3.8,0s2.5,0,3.7,0s2.3,0,3.4,0c0.5,0,1.1,0,1.6,0s0.9-0.1,1.4-0.2
		c0.4-0.1,0.8-0.4,1.1-0.7c0.3-0.3,0.5-0.6,0.7-1c0.4-0.7,0.7-1.3,1-1.8S68.6,59.6,68.9,59.3C68.7,59.4,68.8,59.3,68.9,59.3
		C68.9,59.2,69,59.2,68.9,59.3C69,59.2,68.9,59.2,68.9,59.3z M68.4,51.3c-0.2,0-0.3,0-0.5,0c-0.2,0.5-0.3,0.9-0.6,1.3
		c-0.1,0.3-0.3,0.5-0.5,0.7s-0.4,0.5-0.6,0.7c0-0.3,0-0.6,0.1-0.9c0-0.3,0.1-0.6,0.2-0.9c0.2-0.6,0.4-1.1,0.7-1.6l0.2-0.3l0.3,0.1
		c0.3,0.1,0.6,0.2,0.8,0.3c0.3,0.1,0.5,0.2,0.8,0.4C69,51.2,68.7,51.3,68.4,51.3z M71.5,51.7c-0.1,0-0.3,0-0.4,0
		c-0.1,0.4-0.3,0.8-0.5,1.1c-0.1,0.2-0.3,0.4-0.4,0.6c-0.2,0.2-0.3,0.4-0.5,0.6c0-0.3,0-0.5,0-0.8s0.1-0.5,0.2-0.7
		c0.1-0.5,0.3-0.9,0.6-1.4l0.2-0.3l0.3,0.1c0.2,0.1,0.5,0.2,0.7,0.3s0.5,0.2,0.7,0.4C72.1,51.6,71.8,51.6,71.5,51.7z M74.5,52.2
		c-0.1,0-0.2,0-0.2,0c-0.1,0.3-0.2,0.6-0.4,0.9c-0.1,0.2-0.2,0.3-0.4,0.5c-0.1,0.2-0.3,0.3-0.5,0.4c0-0.2,0-0.4,0-0.7
		c0-0.2,0.1-0.4,0.1-0.6c0.1-0.4,0.3-0.8,0.5-1.1l0.2-0.3l0.3,0.1c0.2,0.1,0.4,0.1,0.6,0.2c0.2,0.1,0.4,0.2,0.5,0.4
		C74.9,52.1,74.7,52.2,74.5,52.2z"/>
	<path class="st0" d="M19.4,60.4c-3.7,0-6.7,3-6.7,6.7s3,6.7,6.7,6.7s6.7-3,6.7-6.7C26.1,63.4,23.1,60.4,19.4,60.4z M23.8,66.6h-3.3
		l2.3-2.3C23.4,64.9,23.7,65.7,23.8,66.6z M22.6,64L22.6,64C22.6,63.9,22.6,63.9,22.6,64z M19.9,65.9v-3.3c0.9,0.1,1.7,0.4,2.3,1
		L19.9,65.9z M19,65.9l-2.3-2.3c0.6-0.5,1.4-0.9,2.3-1V65.9z M16.3,63.9L16.3,63.9L16.3,63.9z M18.3,66.6H15c0.1-0.9,0.4-1.7,1-2.3
		L18.3,66.6z M18.3,67.5L16,69.9c-0.5-0.6-0.9-1.4-1-2.3L18.3,67.5L18.3,67.5z M16.3,70.2L16.3,70.2L16.3,70.2z M19,68.2v3.3
		c-0.9-0.1-1.7-0.4-2.3-1L19,68.2z M19.9,68.2l2.3,2.3c-0.6,0.5-1.4,0.9-2.3,1V68.2z M22.5,70.2L22.5,70.2
		C22.6,70.2,22.6,70.2,22.5,70.2z M20.6,67.5h3.3c-0.1,0.9-0.4,1.7-1,2.3L20.6,67.5z"/>
	<path class="st0" d="M76.5,60.4c-3.7,0-6.7,3-6.7,6.7s3,6.7,6.7,6.7s6.7-3,6.7-6.7S80.2,60.4,76.5,60.4z M80.9,66.6h-3.3l2.3-2.3
		C80.4,64.9,80.8,65.7,80.9,66.6z M79.6,64L79.6,64C79.6,63.9,79.6,63.9,79.6,64z M76.9,65.9v-3.3c0.9,0.1,1.7,0.4,2.3,1L76.9,65.9z
		 M76,65.9l-2.3-2.3c0.6-0.5,1.4-0.9,2.3-1V65.9z M73.4,63.9L73.4,63.9C73.3,63.9,73.3,63.9,73.4,63.9z M75.3,66.6H72
		c0.1-0.9,0.4-1.7,1-2.3L75.3,66.6z M75.3,67.5L73,69.9c-0.5-0.6-0.9-1.4-1-2.3L75.3,67.5L75.3,67.5z M73.3,70.2L73.3,70.2
		L73.3,70.2z M76,68.2v3.3c-0.9-0.1-1.7-0.4-2.3-1L76,68.2z M76.9,68.2l2.3,2.3c-0.6,0.5-1.4,0.9-2.3,1V68.2z M79.6,70.2L79.6,70.2
		L79.6,70.2z M77.6,67.5h3.3c-0.1,0.9-0.4,1.7-1,2.3L77.6,67.5z"/>
</g>
</svg>
