<?xml version="1.0" encoding="utf-8"?>
<!-- Generator: Adobe Illustrator 25.4.0, SVG Export Plug-In . SVG Version: 6.00 Build 0)  -->
<svg version="1.1" id="Layer_1" xmlns="http://www.w3.org/2000/svg" xmlns:xlink="http://www.w3.org/1999/xlink" x="0px" y="0px"
	 viewBox="0 0 100 125" style="enable-background:new 0 0 100 125;" xml:space="preserve">
<style type="text/css">
	.st0{fill:#FFFFFF;}
</style>
<path class="st0" d="M46.5,83.2c-12.2,0.1-22.2-9.7-22.3-21.9C24.1,49.1,33.9,39.1,46.2,39C58.4,39,68.3,48.8,68.4,61
	c0,0.1,0,0.1,0,0.2c0,1.2-0.1,2.5-0.3,3.7l12.4,12.5c0-0.1,0.1-0.2,0.1-0.2c0.8-2.1,1.5-4.2,2.3-6.4c0.2-0.5-0.1-1.1-0.6-1.2
	c-1.9-1.4-3.7-2.8-5.5-4.1c-0.6-0.3-0.8-1-0.7-1.6s0.1-1.3,0.2-2c0-0.6,0.3-1,0.8-1.2c2-1,4-2,6-3c0.3-0.2,0.7-0.5,0.9-0.7v-0.7
	c-0.2-1-0.5-2-0.7-3c-0.2-1.1-0.5-2.3-0.7-3.4c0-0.6-0.6-1-1.1-1c-2.3-0.2-4.6-0.3-6.9-0.4c-0.6,0-1.1-0.3-1.4-0.8
	c-0.2-0.5-0.5-1-0.8-1.5s-0.3-1.1,0-1.5c1.1-2,2.3-3.9,3.4-5.9c0.4-0.5,0.3-1.1-0.1-1.5l-0.1-0.1l-4.5-4.8c-0.3-0.5-1-0.7-1.5-0.3
	c-0.1,0-0.1,0.1-0.2,0.1c-2,1.1-3.9,2.2-5.9,3.3c-0.5,0.3-1.2,0.3-1.7,0c-0.4-0.2-0.9-0.5-1.4-0.8c-0.5-0.2-0.7-0.8-0.7-1.3
	c-0.1-2.2-0.2-4.5-0.2-6.8c0-1.1-0.2-1.2-1.2-1.5l-6-1.5c-0.1,0-0.2-0.1-0.3-0.2h-0.7c-0.2,0.3-0.5,0.7-0.7,1c-1.1,1.9-2,3.8-3,5.7
	c-0.2,0.6-0.8,1-1.4,0.9c-0.6,0-1.1,0-1.7,0.1c-0.6,0.1-1.1-0.2-1.4-0.7c-1.3-1.9-2.6-3.7-3.9-5.7c-0.2-0.6-0.9-0.8-1.5-0.6
	c0,0-0.1,0-0.1,0.1l-6,2c-0.6,0.1-0.9,0.6-0.8,1.1v0.1c0.2,2.1,0.2,4.2,0.5,6.3c0.2,0.9-0.2,1.9-1.1,2.3c-0.5,0.2-0.9,0.6-1.3,0.9
	c-0.5,0.4-1.1,0.4-1.6,0.2c-2.1-0.9-4.2-1.7-6.3-2.6c-0.5-0.3-1.1-0.2-1.5,0.2c0,0.1-0.1,0.1-0.1,0.2l-3.7,4.9
	c-0.5,0.3-0.5,1-0.2,1.5c0.1,0.1,0.1,0.2,0.2,0.2c1.3,1.8,2.6,3.5,4,5.3c0.4,0.4,0.5,1.1,0.2,1.6c-0.4,0.8-0.7,1.6-1.1,2.5
	c-0.2,0.5-0.6,0.8-1.1,0.9c-2.3,0.4-4.5,0.8-6.8,1.2c-0.7,0-1.1,0.5-1.2,1.1c0,0.1,0,0.1,0,0.2C9.4,55.8,9.2,57.5,9,59
	c0,0.2-0.1,0.2-0.1,0.4v1.7l4,1.5c1.1,0.4,2.1,0.8,3.2,1.1c0.6,0.2,0.9,0.7,1,1.2c0.2,1.1,0.3,2,0.6,3.1c0.2,0.6-0.1,1.1-0.6,1.5
	c-1.6,1.5-3.3,3.1-4.9,4.6c-0.5,0.3-0.7,1-0.3,1.5l0.1,0.1l2.6,5.1c0.2,0.6,0.7,0.8,1.2,0.7c0.1,0,0.1,0,0.2-0.1
	c2.2-0.5,4.5-1,6.7-1.5c0.5-0.2,1,0,1.3,0.4l2.4,2.6c0.4,0.3,0.5,0.9,0.3,1.4c-0.6,2.3-1.1,4.6-1.7,6.8c-0.2,0.5,0,1.1,0.5,1.3l0,0
	l5.1,2.9c0.4,0.3,1.1,0.3,1.4-0.2c0,0,0-0.1,0.1-0.1c1.6-1.6,3.2-3.3,4.8-4.9c0.4-0.4,1-0.7,1.5-0.5c1.1,0.2,2.2,0.5,3.3,0.7
	c0.6,0.1,1,0.5,1.1,1.1c0.7,2.1,1.4,4.2,2,6.3c0.1,0.4,0.4,0.8,0.7,1.1h2.6l2.7-0.3l1.1-0.2c0.6,0.1,1.1-0.4,1.2-1c0,0,0,0,0-0.1
	c0.5-2.2,1-4.4,1.4-6.6c0.1-0.6,0.5-1.1,1.1-1.3c0.4-0.2,0.8-0.3,1.2-0.5l-6.2-6.2C49.4,83.1,47.9,83.2,46.5,83.2z"/>
<path class="st0" d="M88.9,95.6c-2.7-2.8-5.5-5.5-8.2-8.2l-1-1c-2.9-2.9-5.8-5.9-8.6-8.8c-3.2-3.2-6.4-6.4-9.5-9.5
	c-1.5-1.5-2.4-3.7-2.1-5.9c0-0.3,0-0.6,0.1-0.9c0.1-0.9,0-1.7-0.1-2.6c-1-7.3-8.6-12.2-15.6-10c-0.9,0.2-0.9,0.5-0.2,1.1
	c1.5,1.6,3.2,3.2,4.7,4.8c1.6,1.4,1.8,3.9,0.3,5.5c-0.1,0.1-0.2,0.2-0.3,0.3c-0.7,0.7-1.2,1.2-1.8,1.9c-1.9,2-4.2,1.9-6,0
	c-1.5-1.5-2.9-3-4.5-4.5c-0.6-0.6-0.7-0.5-1,0.2c-0.2,0.9-0.3,1.8-0.3,2.7c-0.1,4.6,2.4,8.8,6.4,11c2,1.1,4.3,1.6,6.6,1.5h0.6
	c2-0.1,3.8,0.7,5.1,2.1l5.8,5.8L73.1,95l8.2,8.2c2,2.1,5.3,2.2,7.4,0.2c0.1-0.1,0.2-0.2,0.2-0.2c2.1-2,2.2-5.5,0.1-7.6
	C89,95.7,88.9,95.7,88.9,95.6z"/>
</svg>
