<?xml version="1.0" encoding="utf-8"?>
<!-- Generator: Adobe Illustrator 25.4.0, SVG Export Plug-In . SVG Version: 6.00 Build 0)  -->
<svg version="1.1" xmlns="http://www.w3.org/2000/svg" xmlns:xlink="http://www.w3.org/1999/xlink" x="0px" y="0px"
	 viewBox="0 0 100 125" style="enable-background:new 0 0 100 125;" xml:space="preserve">
<style type="text/css">
	.st0{fill:#FFFFFF;}
</style>
<g id="Layer_2">
</g>
<g id="Layer_1">
	<g>
		<path class="st0" d="M50,37.2c-26.2,0-47.5,21.3-47.5,47.5h95C97.5,58.5,76.2,37.2,50,37.2z M45.8,45.1h8.3c1.2,0,2.1,0.9,2.1,2.1
			c0,1.2-0.9,2.1-2.1,2.1h-8.3c-1.2,0-2.1-0.9-2.1-2.1C43.7,46.1,44.7,45.1,45.8,45.1z M73.1,80.2H26.9V58.1c0-1.7,1.4-3,3-3H70
			c1.7,0,3,1.4,3,3L73.1,80.2L73.1,80.2z"/>
		<path class="st0" d="M67.1,59.1H32.9c-0.8,0-1.4,0.6-1.4,1.4v0.6c0,0.8,0.6,1.4,1.4,1.4h34.2c0.8,0,1.4-0.6,1.4-1.4v-0.6
			C68.5,59.8,67.9,59.1,67.1,59.1z"/>
		<path class="st0" d="M67.1,65.9H32.9c-0.8,0-1.4,0.6-1.4,1.4v0.6c0,0.8,0.6,1.4,1.4,1.4h34.2c0.8,0,1.4-0.6,1.4-1.4v-0.6
			C68.5,66.6,67.9,65.9,67.1,65.9z"/>
		<path class="st0" d="M67.1,72.7H32.9c-0.8,0-1.4,0.6-1.4,1.4v0.6c0,0.8,0.6,1.4,1.4,1.4h34.2c0.8,0,1.4-0.6,1.4-1.4v-0.6
			C68.5,73.3,67.9,72.7,67.1,72.7z"/>
	</g>
</g>
</svg>
