<?xml version="1.0" encoding="utf-8"?>
<!-- Generator: Adobe Illustrator 25.4.0, SVG Export Plug-In . SVG Version: 6.00 Build 0)  -->
<svg version="1.1" id="Layer_1" xmlns="http://www.w3.org/2000/svg" xmlns:xlink="http://www.w3.org/1999/xlink" x="0px" y="0px"
	 viewBox="0 0 100 125" style="enable-background:new 0 0 100 125;" xml:space="preserve">
<style type="text/css">
	.st0{fill:#FFFFFF;}
</style>
<g>
	<path class="st0" d="M11.3,62.5l13.8-9.9h42l28,4c1.6,0.2,3,1.8,3,3.4v8c-0.3-0.6-0.8-1.1-1.3-1.6c-1.3-1.2-3.1-2-5-2H8.1
		c-1.8,0-3.4,0.6-4.6,1.7l-1.4-1.4c1.6-1.4,3.7-2.2,6-2.2L11.3,62.5L11.3,62.5z M16.3,82.2c0.7,0.5,1.6,0.7,2.5,0.7H19h62.9
		c1,0,2-0.4,2.8-0.9l8.7-5.4c-0.6,0.2-1.2,0.4-1.8,0.4c-0.9,0-1.7-0.2-2.4-0.7c-1.3-0.9-2.2-2.3-2.2-4s0.9-3.2,2.3-4
		c0.6-0.3,1.2-0.5,1.9-0.6h-8.5c0.4,0.3,0.7,0.9,0.7,1.4c0,1-0.8,1.8-1.8,1.8s-1.8-0.8-1.8-1.8c0-0.6,0.3-1.1,0.7-1.4H58.2
		c0.4,0.3,0.7,0.9,0.7,1.4c0,1-0.8,1.8-1.8,1.8s-1.8-0.8-1.8-1.8c0-0.6,0.3-1.1,0.7-1.4H33.7c0.4,0.3,0.7,0.9,0.7,1.4
		c0,1-0.8,1.8-1.8,1.8s-1.8-0.8-1.8-1.8c0-0.6,0.3-1.1,0.7-1.4h-22c2.2,0.4,3.8,2.3,3.8,4.6c0,2.6-2.1,4.7-4.7,4.7
		c-0.4,0-0.8-0.1-1.2-0.2L16.3,82.2L16.3,82.2z M18.8,84.6c-1.2,0-2.4-0.4-3.4-1L4.6,77.2c-1.6-1.1-2.3-2.9-2.3-4.9
		C2.2,68.8,5,66,8.5,66h83c0.3,0,0.6,0,0.8,0.1c3.1,0.4,5.5,3,5.5,6.2c0,2.4-1.3,4.4-3.2,5.5l-9,5.6c-1,0.8-2.3,1.2-3.7,1.2H19
		C19,84.6,18.9,84.6,18.8,84.6L18.8,84.6z M63.4,78.4c0-2.5,2-4.5,4.5-4.5s4.5,2,4.5,4.5s-2,4.5-4.5,4.5S63.4,80.9,63.4,78.4
		L63.4,78.4z M77.4,78.4c0-2.5,2-4.5,4.5-4.5s4.5,2,4.5,4.5s-2,4.5-4.5,4.5S77.4,80.9,77.4,78.4L77.4,78.4z M28.3,78.4
		c0-2.5,2-4.5,4.5-4.5s4.5,2,4.5,4.5s-2,4.5-4.5,4.5S28.3,80.9,28.3,78.4L28.3,78.4z M14.3,78.4c0-2.5,2-4.5,4.5-4.5s4.5,2,4.5,4.5
		s-2,4.5-4.5,4.5S14.3,80.9,14.3,78.4L14.3,78.4z M38.8,78.4c0-2.5,2-4.5,4.5-4.5s4.5,2,4.5,4.5s-2,4.5-4.5,4.5S38.8,80.9,38.8,78.4
		L38.8,78.4z M52.9,78.4c0-2.5,2-4.5,4.5-4.5s4.5,2,4.5,4.5s-2,4.5-4.5,4.5S52.9,80.9,52.9,78.4L52.9,78.4z M66,33.2V9.8
		c0-0.1,0.2-0.1,0.2,0v23.4c0.3,0,0.5,0.2,0.5,0.6v3.6c1.4,0.2,2.5,1.5,2.5,2.9V48c0,1.6-1.3,3-3,3H36.1c-1.6,0-2.2-1.3-1.1-3
		l4.7-7.6c1-1.6,3.2-3,4.8-3h1h1.9h7.3H57h8.5v-3.6C65.5,33.5,65.7,33.3,66,33.2L66,33.2z M55.2,48.8l-1.1-3.2l2.8-2h-3.4l-1.1-3.2
		l-1.1,3.2H48l2.8,2l-1.1,3.2l2.8-2L55.2,48.8L55.2,48.8z M31.2,45.8L6,43.1l0.1-1.2l0,0l0.1-1.2l26.2,1.8c1-1,2.5-1.6,4.2-1.6
		c0.3,0,0.6,0,1,0.1l-4.5,7c-0.1,0.1-0.1,0.2-0.2,0.3C32,47.7,31.4,46.8,31.2,45.8L31.2,45.8z"/>
</g>
</svg>
